# xmcd CD database file
#
# Track frame offsets:
#	150
#	20683
#	44221
#	67338
#	90888
#	114742
#	139222
#	160061
#	188448
#	209786
#	232909
#	256460
#	274092
#
# Disc length: 3821 seconds
#
# Revision: 0
# Processed by: cddbd v1.5.2PL0 Copyright (c) Steve Scherf et al.
# Submitted via: CDex 1.70beta2
#
DISCID=c10eeb0d
DTITLE=D.E. Chung - Clifton At Desomnd
DYEAR=2008
DGENRE=Jazz
TTITLE0=The Dawn
TTITLE1=Han's Soul Food Palace
TTITLE2=Ava Lee
TTITLE3=Clifton At Desmond
TTITLE4=State Of The World
TTITLE5=Shibuya Station
TTITLE6=Emancipation
TTITLE7=Ipanema My Way
TTITLE8=One In A Million
TTITLE9=Shaken Not Stirred
TTITLE10=House Of The Rising Sun
TTITLE11=Happy Being Lonely
TTITLE12=En Guard In The Yard
EXTD=YEAR: 2008
EXTT0=
EXTT1=
EXTT2=
EXTT3=
EXTT4=
EXTT5=
EXTT6=
EXTT7=
EXTT8=
EXTT9=
EXTT10=
EXTT11=
EXTT12=
PLAYORDER=
